# xmcd
#
# Track frame offsets:
# 150
# 11655
# 18447
# 28112
# 37932
# 47995
# 56627
# 67757
# 79562
# 89735
# 97647
# 113382
# 122529
# 133232
# 145700
# 158395
# 171250
# 181117
# 191922
# 198350
#
# Disc length: 2771 seconds
#
#
# Revision: 0
# Processed by: cddbd v1.5.2PL0 Copyright (c) Steve Scherf et al.
# Submitted via: FreeRIP 2.942 
#
DISCID=f90ad114
DTITLE=Louisiana Hayride - Country Crooners [CDTwo)
DYEAR=2001
DGENRE=Country
TTITLE0=Please Don't Let Me Love You - George Morgan
TTITLE1=Rose Marie - Slim Whitman
TTITLE2=Sadness Follows Me Home - Nat Stuckey
TTITLE3=I Can't Stop Loving You - Don Gibson
TTITLE4=Least Of All - Sonny James
TTITLE5=I Can't Quit (I've Gone Too Far) - Marty Robbins
TTITLE6=I Don't Apologize For Loving You - Hawkshaw Hawkins
TTITLE7=The Shrine Of St. Cecilia - Faron Young
TTITLE8=Each Time You Leave - Jim Reeves
TTITLE9=Goodby Little Darlin' - Johnny Cash
TTITLE10=The Twelfth Of Never - Slim Whitman
TTITLE11=Jimmy Brown - Jim Ed Brown
TTITLE12=I'm Throwing Rice (At The Girl I Love) - Eddy Arnold
TTITLE13=Things Have Gone To Pieces - George Jones
TTITLE14=Take Me As I Am (Or Let Me Go) - Wynn Stewart
TTITLE15=Indian Love Call - Slim Whitman
TTITLE16=The Minute You're Gone - Sonny James
TTITLE17=Have I Told You Lately - Jim Reeves
TTITLE18=Scarlet Ribbons (For Her Hair) - Jim Ed Brown
TTITLE19=You Are My Sunshine - Jimmie Davis
EXTD=
EXTT0=
EXTT1=
EXTT2=
EXTT3=
EXTT4=
EXTT5=
EXTT6=
EXTT7=
EXTT8=
EXTT9=
EXTT10=
EXTT11=
EXTT12=
EXTT13=
EXTT14=
EXTT15=
EXTT16=
EXTT17=
EXTT18=
EXTT19=
PLAYORDER=
